<svg xmlns="http://www.w3.org/2000/svg" width="1400" height="360" viewBox="0 0 1400 360" role="img" aria-label="Practice Athletic Club custom horizontal lockup">
<path d="M50 0V720H324.91339111328125Q399.3635705896326 720 453.17983216981634 692.2083435058594Q506.99609375 664.4166870117188 536.4126586914062 614.2083435058594Q565.8292236328125 564 565.8292236328125 495.74993896484375Q565.8292236328125 427.91656494140625 536.329345703125 377.333251953125Q506.8294677734375 326.74993896484375 453.01320619325384 298.8749694824219Q399.1969446130701 271 324.91339111328125 271H166.999755859375V385.66650390625H318.996826171875Q366.1632080078125 385.66650390625 391.496337890625 414.3331298828125Q416.8294677734375 442.999755859375 416.8294677734375 495.7916564941406Q416.8294677734375 548.5835571289062 391.496337890625 576.9585266113281Q366.1632080078125 605.33349609375 318.996826171875 605.33349609375H198.999755859375V0Z" fill="#111310" transform="translate(74.000 277.000) scale(0.2520000 -0.2520000)"/>
<path d="M50 0V720H324.91339111328125Q399.3635705896326 720 453.17983216981634 692.2083435058594Q506.99609375 664.4166870117188 536.4126586914062 614.2083435058594Q565.8292236328125 564 565.8292236328125 495.74993896484375Q565.8292236328125 427.91656494140625 536.329345703125 377.333251953125Q506.8294677734375 326.74993896484375 453.01320619325384 298.8749694824219Q399.1969446130701 271 324.91339111328125 271H166.999755859375V385.66650390625H318.996826171875Q366.1632080078125 385.66650390625 391.496337890625 414.3331298828125Q416.8294677734375 442.999755859375 416.8294677734375 495.7916564941406Q416.8294677734375 548.5835571289062 391.496337890625 576.9585266113281Q366.1632080078125 605.33349609375 318.996826171875 605.33349609375H198.999755859375V0Z" fill="#111310" transform="translate(315.000 190.000) scale(0.1300000 -0.1300000)"/>
<path d="M50 0V720H326.1639404296875Q398.330322265625 720 448.2050476074219 694.7499389648438Q498.07977294921875 669.4998779296875 524.0379333496094 624.9998779296875Q549.99609375 580.4998779296875 549.99609375 521.666748046875Q549.99609375 447.5001220703125 506.5379333496094 401.25006103515625Q463.07977294921875 355 374.66357421875 334.58331298828125L378.8304443359375 371.58380126953125Q459.8302001953125 367.75018310546875 498.91314697265625 327.2919006347656Q537.99609375 286.8336181640625 537.99609375 216.5006103515625V0H388.996337890625V190.5013427734375Q388.996337890625 244.75067138671875 364.8299560546875 271.0003662109375Q340.66357421875 297.25006103515625 291.8309326171875 297.25006103515625H130.8343505859375V409.8333740234375H306.1639404296875Q351.58013916015625 409.8333740234375 376.2882385253906 435.5417175292969Q400.996337890625 461.25006103515625 400.996337890625 509.33349609375Q400.996337890625 557.5835571289062 376.57989501953125 582.7085876464844Q352.1634521484375 607.8336181640625 306.1639404296875 607.8336181640625H198.999755859375V0Z" fill="#111310" transform="translate(396.310 190.000) scale(0.1300000 -0.1300000)"/>
<polygon points="480.00,190.00 508.80,96.40 519.50,96.40 502.22,190.00" fill="#111310"/>
<polygon points="533.49,190.00 516.21,96.40 526.91,96.40 555.71,190.00" fill="#111310"/>
<rect x="497.69" y="153.50" width="40.32" height="10.76" fill="#111310"/>
<path d="M335.997314453125 -10Q267.58111572265625 -10 211.1649169921875 16.041595458984375Q154.74871826171875 42.08319091796875 114.37411499023438 90.8331298828125Q73.99951171875 139.58306884765625 51.999755859375 208.29141235351562Q30 276.999755859375 30 361.74993896484375Q30 446.5001220703125 51.708099365234375 514.33349609375Q73.41619873046875 582.1668701171875 113.9991455078125 630.6251525878906Q154.58209228515625 679.0834350585938 211.20663452148438 704.5417175292969Q267.8311767578125 730 337.24737548828125 730Q417.4969482421875 730 478.9964599609375 695.5Q540.4959716796875 661 577.4538879394531 597.4582824707031Q614.4118041992188 533.9165649414062 620.2449340820312 445.74969482421875H474.41180419921875Q466.8287353515625 529.8333740234375 429.74603271484375 571.0001220703125Q392.663330078125 612.1668701171875 336.58062744140625 612.1668701171875Q288.91461181640625 612.1668701171875 253.87350463867188 585.0419616699219Q218.8323974609375 557.9170532226562 199.91607666015625 503.0003662109375Q180.999755859375 448.08367919921875 180.999755859375 364Q180.999755859375 279.3330078125 200.41607666015625 222.20797729492188Q219.8323974609375 165.08294677734375 255.1651611328125 136.45803833007812Q290.4979248046875 107.8331298828125 337.74725341796875 107.8331298828125Q391.08001708984375 107.8331298828125 428.1627197265625 149.333251953125Q465.24542236328125 190.8333740234375 473.9951171875 273.6669921875H621.4115600585938Q613.8284912109375 186.33349609375 576.3705749511719 122.58343505859375Q538.9126586914062 58.8333740234375 477.2881164550781 24.41668701171875Q415.66357421875 -10 335.997314453125 -10Z" fill="#111310" transform="translate(564.000 190.000) scale(0.1300000 -0.1300000)"/>
<path d="M211.08099365234375 0V605.33349609375H18.1663818359375V720H552.995361328125V605.33349609375H360.08074951171875V0Z" fill="#111310" transform="translate(653.110 190.000) scale(0.1300000 -0.1300000)"/>
<path d="M50 0V720H198.999755859375V0Z" fill="#111310" transform="translate(732.340 190.000) scale(0.1300000 -0.1300000)"/>
<path d="M335.997314453125 -10Q267.58111572265625 -10 211.1649169921875 16.041595458984375Q154.74871826171875 42.08319091796875 114.37411499023438 90.8331298828125Q73.99951171875 139.58306884765625 51.999755859375 208.29141235351562Q30 276.999755859375 30 361.74993896484375Q30 446.5001220703125 51.708099365234375 514.33349609375Q73.41619873046875 582.1668701171875 113.9991455078125 630.6251525878906Q154.58209228515625 679.0834350585938 211.20663452148438 704.5417175292969Q267.8311767578125 730 337.24737548828125 730Q417.4969482421875 730 478.9964599609375 695.5Q540.4959716796875 661 577.4538879394531 597.4582824707031Q614.4118041992188 533.9165649414062 620.2449340820312 445.74969482421875H474.41180419921875Q466.8287353515625 529.8333740234375 429.74603271484375 571.0001220703125Q392.663330078125 612.1668701171875 336.58062744140625 612.1668701171875Q288.91461181640625 612.1668701171875 253.87350463867188 585.0419616699219Q218.8323974609375 557.9170532226562 199.91607666015625 503.0003662109375Q180.999755859375 448.08367919921875 180.999755859375 364Q180.999755859375 279.3330078125 200.41607666015625 222.20797729492188Q219.8323974609375 165.08294677734375 255.1651611328125 136.45803833007812Q290.4979248046875 107.8331298828125 337.74725341796875 107.8331298828125Q391.08001708984375 107.8331298828125 428.1627197265625 149.333251953125Q465.24542236328125 190.8333740234375 473.9951171875 273.6669921875H621.4115600585938Q613.8284912109375 186.33349609375 576.3705749511719 122.58343505859375Q538.9126586914062 58.8333740234375 477.2881164550781 24.41668701171875Q415.66357421875 -10 335.997314453125 -10Z" fill="#111310" transform="translate(769.710 190.000) scale(0.1300000 -0.1300000)"/>
<path d="M50 0V720H198.999755859375V0ZM122 0V114.66650390625H500.995849609375V0ZM122 312.91680908203125V425.58331298828125H473.07952880859375V312.91680908203125ZM122 605.33349609375V720H490.66259765625V605.33349609375Z" fill="#111310" transform="translate(858.820 190.000) scale(0.1300000 -0.1300000)"/>
<polygon points="319.39,280.00 331.58,240.40 336.10,240.40 328.79,280.00" fill="#111310"/>
<polygon points="342.02,280.00 334.71,240.40 339.24,240.40 351.42,280.00" fill="#111310"/>
<rect x="326.88" y="264.56" width="17.06" height="4.55" fill="#111310"/>
<path d="M211.08099365234375 0V605.33349609375H18.1663818359375V720H552.995361328125V605.33349609375H360.08074951171875V0Z" fill="#111310" transform="translate(362.815 280.000) scale(0.0550000 -0.0550000)"/>
<path d="M50 0V720H198.999755859375V0ZM435.1627197265625 0V720H584.1624755859375V0ZM122 432.333251953125H505.1627197265625V317.666748046875H122Z" fill="#111310" transform="translate(404.220 280.000) scale(0.0550000 -0.0550000)"/>
<path d="M50 0V720H198.999755859375V0ZM122 0V114.66650390625H469.99609375V0Z" fill="#111310" transform="translate(449.090 280.000) scale(0.0550000 -0.0550000)"/>
<path d="M50 0V720H198.999755859375V0ZM122 0V114.66650390625H500.995849609375V0ZM122 312.91680908203125V425.58331298828125H473.07952880859375V312.91680908203125ZM122 605.33349609375V720H490.66259765625V605.33349609375Z" fill="#111310" transform="translate(486.975 280.000) scale(0.0550000 -0.0550000)"/>
<path d="M211.08099365234375 0V605.33349609375H18.1663818359375V720H552.995361328125V605.33349609375H360.08074951171875V0Z" fill="#111310" transform="translate(526.675 280.000) scale(0.0550000 -0.0550000)"/>
<path d="M50 0V720H198.999755859375V0Z" fill="#111310" transform="translate(568.080 280.000) scale(0.0550000 -0.0550000)"/>
<path d="M335.997314453125 -10Q267.58111572265625 -10 211.1649169921875 16.041595458984375Q154.74871826171875 42.08319091796875 114.37411499023438 90.8331298828125Q73.99951171875 139.58306884765625 51.999755859375 208.29141235351562Q30 276.999755859375 30 361.74993896484375Q30 446.5001220703125 51.708099365234375 514.33349609375Q73.41619873046875 582.1668701171875 113.9991455078125 630.6251525878906Q154.58209228515625 679.0834350585938 211.20663452148438 704.5417175292969Q267.8311767578125 730 337.24737548828125 730Q417.4969482421875 730 478.9964599609375 695.5Q540.4959716796875 661 577.4538879394531 597.4582824707031Q614.4118041992188 533.9165649414062 620.2449340820312 445.74969482421875H474.41180419921875Q466.8287353515625 529.8333740234375 429.74603271484375 571.0001220703125Q392.663330078125 612.1668701171875 336.58062744140625 612.1668701171875Q288.91461181640625 612.1668701171875 253.87350463867188 585.0419616699219Q218.8323974609375 557.9170532226562 199.91607666015625 503.0003662109375Q180.999755859375 448.08367919921875 180.999755859375 364Q180.999755859375 279.3330078125 200.41607666015625 222.20797729492188Q219.8323974609375 165.08294677734375 255.1651611328125 136.45803833007812Q290.4979248046875 107.8331298828125 337.74725341796875 107.8331298828125Q391.08001708984375 107.8331298828125 428.1627197265625 149.333251953125Q465.24542236328125 190.8333740234375 473.9951171875 273.6669921875H621.4115600585938Q613.8284912109375 186.33349609375 576.3705749511719 122.58343505859375Q538.9126586914062 58.8333740234375 477.2881164550781 24.41668701171875Q415.66357421875 -10 335.997314453125 -10Z" fill="#111310" transform="translate(591.775 280.000) scale(0.0550000 -0.0550000)"/>
<path d="" fill="#111310" transform="translate(637.360 280.000) scale(0.0550000 -0.0550000)"/>
<path d="M335.997314453125 -10Q267.58111572265625 -10 211.1649169921875 16.041595458984375Q154.74871826171875 42.08319091796875 114.37411499023438 90.8331298828125Q73.99951171875 139.58306884765625 51.999755859375 208.29141235351562Q30 276.999755859375 30 361.74993896484375Q30 446.5001220703125 51.708099365234375 514.33349609375Q73.41619873046875 582.1668701171875 113.9991455078125 630.6251525878906Q154.58209228515625 679.0834350585938 211.20663452148438 704.5417175292969Q267.8311767578125 730 337.24737548828125 730Q417.4969482421875 730 478.9964599609375 695.5Q540.4959716796875 661 577.4538879394531 597.4582824707031Q614.4118041992188 533.9165649414062 620.2449340820312 445.74969482421875H474.41180419921875Q466.8287353515625 529.8333740234375 429.74603271484375 571.0001220703125Q392.663330078125 612.1668701171875 336.58062744140625 612.1668701171875Q288.91461181640625 612.1668701171875 253.87350463867188 585.0419616699219Q218.8323974609375 557.9170532226562 199.91607666015625 503.0003662109375Q180.999755859375 448.08367919921875 180.999755859375 364Q180.999755859375 279.3330078125 200.41607666015625 222.20797729492188Q219.8323974609375 165.08294677734375 255.1651611328125 136.45803833007812Q290.4979248046875 107.8331298828125 337.74725341796875 107.8331298828125Q391.08001708984375 107.8331298828125 428.1627197265625 149.333251953125Q465.24542236328125 190.8333740234375 473.9951171875 273.6669921875H621.4115600585938Q613.8284912109375 186.33349609375 576.3705749511719 122.58343505859375Q538.9126586914062 58.8333740234375 477.2881164550781 24.41668701171875Q415.66357421875 -10 335.997314453125 -10Z" fill="#111310" transform="translate(656.655 280.000) scale(0.0550000 -0.0550000)"/>
<path d="M50 0V720H198.999755859375V0ZM122 0V114.66650390625H469.99609375V0Z" fill="#111310" transform="translate(702.240 280.000) scale(0.0550000 -0.0550000)"/>
<path d="M307.331298828125 -10Q175.8323974609375 -10 109.74957275390625 63.6661376953125Q43.666748046875 137.332275390625 43.666748046875 273.4976806640625V720H192.66650390625V243.99755859375Q192.66650390625 174.1654052734375 223.45767211914062 140.999267578125Q254.24884033203125 107.8331298828125 307.91461181640625 107.8331298828125Q361.9970703125 107.8331298828125 392.57989501953125 140.999267578125Q423.1627197265625 174.1654052734375 423.1627197265625 243.41424560546875V720H572.1624755859375V272.3310546875Q572.1624755859375 137.332275390625 505.7879943847656 63.6661376953125Q439.41351318359375 -10 307.331298828125 -10Z" fill="#111310" transform="translate(740.125 280.000) scale(0.0550000 -0.0550000)"/>
<path d="M170.999755859375 0V108.333251953125H305.33056640625Q350.330322265625 108.333251953125 374.16357421875 135.96583418412644Q397.996826171875 163.59841641512784 397.996826171875 213.04877510456123Q397.996826171875 265.25006103515625 372.3719177246094 294.4584045410156Q346.74700927734375 323.666748046875 300.33056640625 323.666748046875H170.999755859375V430.333251953125H294.41400146484375Q336.76099650065106 430.333251953125 359.42062886555993 453.0415954589844Q382.08026123046875 475.74993896484375 382.08026123046875 521Q382.08026123046875 566.1638499292834 360.4553527832031 588.9152989880793Q338.8304443359375 611.666748046875 297.41400146484375 611.666748046875H170.999755859375V720H327.91387939453125Q417.66357421875 720 473.5384216308594 671.0534686873444Q529.4132690429688 622.1069373746889 529.4132690429688 538.0129062348763Q529.4132690429688 485 506.91339111328125 447.0Q484.41351318359375 409 447.2054138183594 389.0Q409.997314453125 369 364.24761962890625 369L367.1641845703125 390Q416.91387939453125 390 457.6219787597656 366.0Q498.330078125 342 522.8299560546875 298.5Q547.329833984375 255 547.329833984375 196Q547.329833984375 137 521.2882385253906 92.5Q495.24664306640625 48 448.4551086425781 24.0Q401.66357421875 0 338.8304443359375 0ZM50 0V720H198.999755859375V0Z" fill="#111310" transform="translate(784.005 280.000) scale(0.0550000 -0.0550000)"/>
</svg>
