<svg xmlns="http://www.w3.org/2000/svg" width="1600" height="500" viewBox="0 0 1600 500" role="img" aria-labelledby="title desc">
  <title id="title">Practice Athletic Club Session Mark logo concept</title>
  <desc id="desc">A stable P paired with a square completion mark, turning each completed session into a recognizable brand gesture.</desc>
  <rect width="1600" height="500" fill="#FFFFFF"/>
  <g fill="#0A0B0C" stroke="#0A0B0C">

      <g transform="translate(92 142)">
        <path stroke="none" fill-rule="evenodd" d="M24 0H91C130 0 154 24 154 61C154 98 130 122 91 122H58V178H24V0ZM58 32V90H89C109 90 120 79 120 61C120 43 109 32 89 32H58Z"/>
        <rect x="135" y="151" width="27" height="27" stroke="none"/>
      </g>
    <g stroke="none">
      <path d="M140 0V1440H742.80126953125Q763.80126953125 1440 798.4014892578125 1438.5Q833.001708984375 1437 860.93505859375 1432Q988.268798828125 1412.2666015625 1070.368896484375 1347.6331787109375Q1152.468994140625 1282.999755859375 1191.6356201171875 1185.032958984375Q1230.80224609375 1087.066162109375 1230.80224609375 966.9326171875Q1230.80224609375 846.799072265625 1191.1689453125 748.832275390625Q1151.53564453125 650.865478515625 1069.435546875 586.2320556640625Q987.33544921875 521.5986328125 860.93505859375 501.865234375Q833.001708984375 497.865234375 797.934814453125 495.865234375Q762.867919921875 493.865234375 742.80126953125 493.865234375H399.4697265625V0ZM399.4697265625 736.53466796875H731.60107421875Q752.33447265625 736.53466796875 777.2344970703125 738.53466796875Q802.134521484375 740.53466796875 823.33447265625 746.4013671875Q880.20068359375 761.468017578125 911.9669189453125 797.9344482421875Q943.733154296875 834.40087890625 956.3995361328125 879.76708984375Q969.06591796875 925.13330078125 969.06591796875 966.9326171875Q969.06591796875 1008.73193359375 956.3995361328125 1054.09814453125Q943.733154296875 1099.46435546875 911.9669189453125 1135.9307861328125Q880.20068359375 1172.397216796875 823.33447265625 1187.4638671875Q802.134521484375 1193.397216796875 777.2344970703125 1195.3638916015625Q752.33447265625 1197.33056640625 731.60107421875 1197.33056640625H399.4697265625Z" transform="translate(360.00 287.00) scale(0.066000 -0.066000)"/>
<path d="M140 0V1440H742.80126953125Q763.80126953125 1440 798.4014892578125 1438.5Q833.001708984375 1437 860.93505859375 1432Q988.268798828125 1412.2666015625 1070.368896484375 1347.6331787109375Q1152.468994140625 1282.999755859375 1191.6356201171875 1185.032958984375Q1230.80224609375 1087.066162109375 1230.80224609375 966.9326171875Q1230.80224609375 787.732177734375 1141.2021484375 660.0653076171875Q1051.60205078125 532.3984375 862.80126953125 502.26513671875L749.73291015625 493.865234375H399.4697265625V0ZM957.99853515625 0 673.99853515625 586 940.13525390625 640 1252.13525390625 0ZM399.4697265625 736.53466796875H731.60107421875Q752.33447265625 736.53466796875 777.2344970703125 738.53466796875Q802.134521484375 740.53466796875 823.33447265625 746.4013671875Q880.20068359375 761.468017578125 911.9669189453125 797.9344482421875Q943.733154296875 834.40087890625 956.3995361328125 879.76708984375Q969.06591796875 925.13330078125 969.06591796875 966.9326171875Q969.06591796875 1008.73193359375 956.3995361328125 1054.09814453125Q943.733154296875 1099.46435546875 911.9669189453125 1135.9307861328125Q880.20068359375 1172.397216796875 823.33447265625 1187.4638671875Q802.134521484375 1193.397216796875 777.2344970703125 1195.3638916015625Q752.33447265625 1197.33056640625 731.60107421875 1197.33056640625H399.4697265625Z" transform="translate(449.21 287.00) scale(0.066000 -0.066000)"/>
<path d="M40 0 485.5986328125 1440H870.537109375L1316.1357421875 0H1048.79931640625L648.9345703125 1278.7978515625H701.4677734375L307.33642578125 0ZM299.734375 304.93212890625V547.3349609375H1058.134765625V304.93212890625Z" transform="translate(541.12 287.00) scale(0.066000 -0.066000)"/>
<path d="M754.5341796875 -30Q538.600830078125 -30 382.96728515625 64.13330078125Q227.333740234375 158.2666015625 143.6668701171875 327.2666015625Q60 496.2666015625 60 720Q60 943.7333984375 143.6668701171875 1112.7333984375Q227.333740234375 1281.7333984375 382.96728515625 1375.86669921875Q538.600830078125 1470 754.5341796875 1470Q1002.80078125 1470 1170.3343505859375 1346.4334716796875Q1337.867919921875 1222.866943359375 1405.8681640625 1012.26708984375L1144.26513671875 939.99951171875Q1103.73193359375 1074.99853515625 1006.2991943359375 1150.231201171875Q908.866455078125 1225.4638671875 754.5341796875 1225.4638671875Q614.3349609375 1225.4638671875 520.768798828125 1162.8642578125Q427.20263671875 1100.2646484375 380.13623046875 986.6319580078125Q333.06982421875 872.999267578125 332.9365234375 720Q332.80322265625 567.000732421875 379.86962890625 453.4013671875Q426.93603515625 339.802001953125 520.635498046875 277.1690673828125Q614.3349609375 214.5361328125 754.5341796875 214.5361328125Q908.866455078125 214.5361328125 1006.2991943359375 290.268798828125Q1103.73193359375 366.00146484375 1144.26513671875 500.00048828125L1405.8681640625 427.73291015625Q1337.867919921875 217.133056640625 1170.3343505859375 93.5665283203125Q1002.80078125 -30 754.5341796875 -30Z" transform="translate(634.61 287.00) scale(0.066000 -0.066000)"/>
<path d="M478.93212890625 0V1197.33056640625H20V1440H1197.333984375V1197.33056640625H738.40185546875V0Z" transform="translate(736.69 287.00) scale(0.066000 -0.066000)"/>
<path d="M160 0V1440H419.4697265625V0Z" transform="translate(821.01 287.00) scale(0.066000 -0.066000)"/>
<path d="M754.5341796875 -30Q538.600830078125 -30 382.96728515625 64.13330078125Q227.333740234375 158.2666015625 143.6668701171875 327.2666015625Q60 496.2666015625 60 720Q60 943.7333984375 143.6668701171875 1112.7333984375Q227.333740234375 1281.7333984375 382.96728515625 1375.86669921875Q538.600830078125 1470 754.5341796875 1470Q1002.80078125 1470 1170.3343505859375 1346.4334716796875Q1337.867919921875 1222.866943359375 1405.8681640625 1012.26708984375L1144.26513671875 939.99951171875Q1103.73193359375 1074.99853515625 1006.2991943359375 1150.231201171875Q908.866455078125 1225.4638671875 754.5341796875 1225.4638671875Q614.3349609375 1225.4638671875 520.768798828125 1162.8642578125Q427.20263671875 1100.2646484375 380.13623046875 986.6319580078125Q333.06982421875 872.999267578125 332.9365234375 720Q332.80322265625 567.000732421875 379.86962890625 453.4013671875Q426.93603515625 339.802001953125 520.635498046875 277.1690673828125Q614.3349609375 214.5361328125 754.5341796875 214.5361328125Q908.866455078125 214.5361328125 1006.2991943359375 290.268798828125Q1103.73193359375 366.00146484375 1144.26513671875 500.00048828125L1405.8681640625 427.73291015625Q1337.867919921875 217.133056640625 1170.3343505859375 93.5665283203125Q1002.80078125 -30 754.5341796875 -30Z" transform="translate(863.23 287.00) scale(0.066000 -0.066000)"/>
<path d="M140 0V1440H1076.0009765625V1197.33056640625H399.4697265625V870.2685546875H956.0009765625V627.59912109375H399.4697265625V242.66943359375H1076.0009765625V0Z" transform="translate(965.30 287.00) scale(0.066000 -0.066000)"/>
<rect x="1064.92" y="262.00" width="23" height="23"/>
<path d="M40 0 506.5986328125 1440H812.537109375L1279.1357421875 0H1059.29931640625L629.9345703125 1311.7978515625H684.4677734375L259.83642578125 0ZM283.734375 323.43212890625V522.3349609375H1036.134765625V323.43212890625Z" transform="translate(363.00 357.00) scale(0.015500 -0.015500)"/>
<path d="M497.43212890625 0V1239.83056640625H20V1440H1187.333984375V1239.83056640625H709.90185546875V0Z" transform="translate(391.44 357.00) scale(0.015500 -0.015500)"/>
<path d="M140 0V1440H352.4697265625V820.76806640625H1068.666015625V1440H1281.1357421875V0H1068.666015625V620.5986328125H352.4697265625V0Z" transform="translate(418.15 357.00) scale(0.015500 -0.015500)"/>
<path d="M160 0V1440H372.4697265625V200.16943359375H1022.8681640625V0Z" transform="translate(448.18 357.00) scale(0.015500 -0.015500)"/>
<path d="M140 0V1440H1061.0009765625V1239.83056640625H352.4697265625V841.2685546875H941.0009765625V641.09912109375H352.4697265625V200.16943359375H1061.0009765625V0Z" transform="translate(472.50 357.00) scale(0.015500 -0.015500)"/>
<path d="M497.43212890625 0V1239.83056640625H20V1440H1187.333984375V1239.83056640625H709.90185546875V0Z" transform="translate(498.50 357.00) scale(0.015500 -0.015500)"/>
<path d="M160 0V1440H372.4697265625V0Z" transform="translate(525.20 357.00) scale(0.015500 -0.015500)"/>
<path d="M741.5341796875 -30Q525.850830078125 -30 373.46728515625 64.63330078125Q221.083740234375 159.2666015625 140.5418701171875 328.2666015625Q60 497.2666015625 60 720Q60 942.7333984375 140.5418701171875 1111.7333984375Q221.083740234375 1280.7333984375 373.46728515625 1375.36669921875Q525.850830078125 1470 741.5341796875 1470Q990.80078125 1470 1154.7093505859375 1344.3084716796875Q1318.617919921875 1218.616943359375 1382.8681640625 1005.76708984375L1167.76513671875 947.49951171875Q1125.23193359375 1097.49853515625 1018.6741943359375 1182.981201171875Q912.116455078125 1268.4638671875 741.5341796875 1268.4638671875Q589.3349609375 1268.4638671875 488.018798828125 1199.8642578125Q386.70263671875 1131.2646484375 335.63623046875 1007.7569580078125Q284.56982421875 884.249267578125 283.9365234375 720Q283.30322265625 555.750732421875 334.36962890625 432.4013671875Q385.43603515625 309.052001953125 487.385498046875 240.2940673828125Q589.3349609375 171.5361328125 741.5341796875 171.5361328125Q912.116455078125 171.5361328125 1018.6741943359375 257.518798828125Q1125.23193359375 343.50146484375 1167.76513671875 492.50048828125L1382.8681640625 434.23291015625Q1318.617919921875 221.383056640625 1154.7093505859375 95.6915283203125Q990.80078125 -30 741.5341796875 -30Z" transform="translate(541.45 357.00) scale(0.015500 -0.015500)"/>
<path d="M741.5341796875 -30Q525.850830078125 -30 373.46728515625 64.63330078125Q221.083740234375 159.2666015625 140.5418701171875 328.2666015625Q60 497.2666015625 60 720Q60 942.7333984375 140.5418701171875 1111.7333984375Q221.083740234375 1280.7333984375 373.46728515625 1375.36669921875Q525.850830078125 1470 741.5341796875 1470Q990.80078125 1470 1154.7093505859375 1344.3084716796875Q1318.617919921875 1218.616943359375 1382.8681640625 1005.76708984375L1167.76513671875 947.49951171875Q1125.23193359375 1097.49853515625 1018.6741943359375 1182.981201171875Q912.116455078125 1268.4638671875 741.5341796875 1268.4638671875Q589.3349609375 1268.4638671875 488.018798828125 1199.8642578125Q386.70263671875 1131.2646484375 335.63623046875 1007.7569580078125Q284.56982421875 884.249267578125 283.9365234375 720Q283.30322265625 555.750732421875 334.36962890625 432.4013671875Q385.43603515625 309.052001953125 487.385498046875 240.2940673828125Q589.3349609375 171.5361328125 741.5341796875 171.5361328125Q912.116455078125 171.5361328125 1018.6741943359375 257.518798828125Q1125.23193359375 343.50146484375 1167.76513671875 492.50048828125L1382.8681640625 434.23291015625Q1318.617919921875 221.383056640625 1154.7093505859375 95.6915283203125Q990.80078125 -30 741.5341796875 -30Z" transform="translate(590.67 357.00) scale(0.015500 -0.015500)"/>
<path d="M160 0V1440H372.4697265625V200.16943359375H1022.8681640625V0Z" transform="translate(621.34 357.00) scale(0.015500 -0.015500)"/>
<path d="M714.6005859375 -30Q545.03369140625 -30 415.56689453125 39.3917236328125Q286.10009765625 108.783447265625 213.050048828125 234.7252197265625Q140 360.6669921875 140 530.50048828125V1438.63330078125L355.203125 1440V540.7333984375Q355.203125 450.10107421875 385.852783203125 380.8599853515625Q416.50244140625 311.618896484375 468.0269775390625 264.7108154296875Q519.551513671875 217.802734375 583.8094482421875 194.0361328125Q648.0673828125 170.26953125 714.6005859375 170.26953125Q782.50048828125 170.26953125 846.7584228515625 194.3778076171875Q911.016357421875 218.486083984375 962.19921875 265.3941650390625Q1013.382080078125 312.30224609375 1043.6900634765625 381.5433349609375Q1073.998046875 450.784423828125 1073.998046875 540.7333984375V1440H1289.201171875V530.50048828125Q1289.201171875 360.983642578125 1216.151123046875 235.0418701171875Q1143.10107421875 109.10009765625 1013.63427734375 39.550048828125Q884.16748046875 -30 714.6005859375 -30Z" transform="translate(645.66 357.00) scale(0.015500 -0.015500)"/>
<path d="M140 0V1440H706.50048828125Q844.66796875 1440 937.451416015625 1383.883056640625Q1030.23486328125 1327.76611328125 1077.084716796875 1238.882568359375Q1123.9345703125 1149.9990234375 1123.9345703125 1051.83251953125Q1123.9345703125 933.049072265625 1065.7930908203125 848.1409912109375Q1007.651611328125 763.23291015625 908.53515625 732.43310546875L907.2685546875 781.7998046875Q1044.8017578125 748.10009765625 1118.318115234375 649.6751708984375Q1191.83447265625 551.250244140625 1191.83447265625 420.80078125Q1191.83447265625 293.70068359375 1141.6429443359375 199.3421630859375Q1091.451416015625 104.983642578125 994.9263916015625 52.4918212890625Q898.4013671875 0 760.90087890625 0ZM355.203125 201.5361328125H729.10107421875Q799.616943359375 201.5361328125 855.4412841796875 228.6776123046875Q911.265625 255.819091796875 943.365234375 305.7603759765625Q975.46484375 355.70166015625 975.46484375 425.10107421875Q975.46484375 489.717041015625 947.0235595703125 541.2747802734375Q918.582275390625 592.83251953125 865.949462890625 623.298828125Q813.316650390625 653.76513671875 741.76708984375 653.76513671875H355.203125ZM355.203125 853.30126953125H703.76708984375Q760.849853515625 853.30126953125 806.8243408203125 876.584228515625Q852.798828125 899.8671875 879.815185546875 943.6583251953125Q906.83154296875 987.449462890625 906.83154296875 1049.63232421875Q906.83154296875 1132.7314453125 851.7406005859375 1186.59765625Q796.649658203125 1240.4638671875 703.76708984375 1240.4638671875H355.203125Z" transform="translate(675.81 357.00) scale(0.015500 -0.015500)"/>
    </g>
  </g>
</svg>
